<?xml version="1.0" standalone="no"?><!DOCTYPE svg PUBLIC "-//W3C//DTD SVG 1.1//EN" "http://www.w3.org/Graphics/SVG/1.1/DTD/svg11.dtd"><svg t="1522846923969" class="icon" style="" viewBox="0 0 1024 1024" version="1.1" xmlns="http://www.w3.org/2000/svg" p-id="6146" xmlns:xlink="http://www.w3.org/1999/xlink" width="200" height="200"><defs><style type="text/css"></style></defs><path d="M512 537.6c-6.4 0-10.666667-4.266667-10.666667-10.666667V298.666667c0-6.4 4.266667-10.666667 10.666667-10.666667s10.666667 4.266667 10.666667 10.666667v228.266666c0 4.266667-6.4 10.666667-10.666667 10.666667z" fill="#ffffff" p-id="6147"></path><path d="M512 309.333333c-4.266667 0-8.533333-2.133333-8.533333-6.4-2.133333-4.266667 0-10.666667 4.266666-14.933333l202.666667-102.4c4.266667-2.133333 10.666667 0 14.933333 4.266667 2.133333 4.266667 0 10.666667-4.266666 14.933333l-202.666667 102.4c-4.266667 2.133333-6.4 2.133333-6.4 2.133333z" fill="#ffffff" p-id="6148"></path><path d="M746.666667 921.6c-6.4 0-10.666667-4.266667-10.666667-10.666667V682.666667c0-6.4 4.266667-10.666667 10.666667-10.666667s10.666667 4.266667 10.666666 10.666667v228.266666c0 4.266667-6.4 10.666667-10.666666 10.666667z" fill="#ffffff" p-id="6149"></path><path d="M746.666667 921.6c-6.4 0-10.666667-4.266667-10.666667-10.666667V682.666667c0-6.4 4.266667-10.666667 10.666667-10.666667s10.666667 4.266667 10.666666 10.666667v228.266666c0 4.266667-6.4 10.666667-10.666666 10.666667zM277.333333 921.6c-6.4 0-10.666667-4.266667-10.666666-10.666667V682.666667c0-6.4 4.266667-10.666667 10.666666-10.666667s10.666667 4.266667 10.666667 10.666667v228.266666c0 4.266667-6.4 10.666667-10.666667 10.666667z" fill="#ffffff" p-id="6150"></path><path d="M512 309.333333c-2.133333 0-4.266667 0-4.266667-2.133333l-202.666666-102.4c-6.4-2.133333-8.533333-8.533333-4.266667-12.8 2.133333-4.266667 8.533333-6.4 14.933333-4.266667l202.666667 102.4c4.266667 2.133333 6.4 8.533333 4.266667 14.933334-4.266667 2.133333-6.4 4.266667-10.666667 4.266666zM746.666667 693.333333c-2.133333 0-4.266667 0-4.266667-2.133333l-202.666667-102.4c-4.266667-2.133333-6.4-8.533333-4.266666-14.933333 2.133333-4.266667 8.533333-6.4 14.933333-4.266667l202.666667 102.4c4.266667 2.133333 6.4 8.533333 4.266666 14.933333-4.266667 4.266667-6.4 6.4-10.666666 6.4z" fill="#ffffff" p-id="6151"></path><path d="M746.666667 693.333333c-4.266667 0-8.533333-2.133333-8.533334-6.4-2.133333-4.266667 0-10.666667 4.266667-14.933333l202.666667-102.4c4.266667-2.133333 10.666667 0 14.933333 4.266667 2.133333 4.266667 0 10.666667-4.266667 14.933333l-202.666666 102.4c-4.266667 2.133333-6.4 2.133333-6.4 2.133333zM277.333333 693.333333c-2.133333 0-4.266667 0-4.266666-2.133333l-202.666667-102.4c-6.4-2.133333-8.533333-8.533333-4.266667-12.8 2.133333-4.266667 8.533333-6.4 14.933334-4.266667l202.666666 102.4c4.266667 2.133333 6.4 8.533333 4.266667 14.933334-4.266667 2.133333-6.4 4.266667-10.666667 4.266666z" fill="#ffffff" p-id="6152"></path><path d="M277.333333 693.333333c-4.266667 0-8.533333-2.133333-8.533333-6.4-2.133333-4.266667 0-10.666667 4.266667-14.933333l202.666666-102.4c4.266667-2.133333 10.666667 0 14.933334 4.266667 2.133333 4.266667 0 10.666667-4.266667 14.933333l-202.666667 102.4c-4.266667 2.133333-6.4 2.133333-6.4 2.133333z" fill="#ffffff" p-id="6153"></path><path d="M512 537.6c-2.133333 0-4.266667 0-4.266667-2.133333l-202.666666-102.4c-4.266667-2.133333-6.4-6.4-6.4-8.533334V196.266667c0-4.266667 2.133333-8.533333 6.4-10.666667l202.666666-76.8h8.533334l202.666666 76.8c4.266667 2.133333 6.4 6.4 6.4 10.666667v228.266666c0 4.266667-2.133333 8.533333-6.4 8.533334l-202.666666 102.4c-2.133333 0-4.266667 2.133333-4.266667 2.133333z m-192-119.466667l192 96 192-96v-213.333333l-192-72.533333-192 72.533333v213.333333zM277.333333 921.6c-2.133333 0-4.266667 0-4.266666-2.133333l-202.666667-102.4c-4.266667 0-6.4-4.266667-6.4-8.533334V580.266667c0-4.266667 2.133333-8.533333 6.4-10.666667l202.666667-76.8h8.533333l202.666667 76.8c4.266667 2.133333 6.4 6.4 6.4 10.666667v228.266666c0 4.266667-2.133333 8.533333-6.4 8.533334l-202.666667 102.4c-2.133333 0-4.266667 2.133333-4.266667 2.133333z m-192-119.466667l192 96 192-96v-213.333333l-192-72.533333-192 72.533333v213.333333zM746.666667 921.6c-2.133333 0-4.266667 0-4.266667-2.133333l-202.666667-102.4c-4.266667-2.133333-6.4-6.4-6.4-8.533334V580.266667c0-4.266667 2.133333-8.533333 6.4-10.666667l202.666667-76.8h8.533333l202.666667 76.8c4.266667 2.133333 6.4 6.4 6.4 10.666667v228.266666c0 4.266667-2.133333 8.533333-6.4 8.533334l-202.666667 102.4c-2.133333 0-4.266667 2.133333-4.266666 2.133333z m-192-119.466667l192 96 192-96v-213.333333l-192-72.533333-192 72.533333v213.333333z" fill="#ffffff" p-id="6154"></path></svg>