<?xml version="1.0" standalone="no"?><!DOCTYPE svg PUBLIC "-//W3C//DTD SVG 1.1//EN" "http://www.w3.org/Graphics/SVG/1.1/DTD/svg11.dtd"><svg t="1522847567303" class="icon" style="" viewBox="0 0 1024 1024" version="1.1" xmlns="http://www.w3.org/2000/svg" p-id="7780" xmlns:xlink="http://www.w3.org/1999/xlink" width="32" height="32"><defs><style type="text/css"></style></defs><path d="M520.533333 974.933333c-6.4 0-10.666667-4.266667-10.666666-10.666666v-469.333334c0-6.4 4.266667-10.666667 10.666666-10.666666s10.666667 4.266667 10.666667 10.666666v467.2c0 6.4-4.266667 12.8-10.666667 12.8z" fill="#ffffff" p-id="7781"></path><path d="M520.533333 505.6c-2.133333 0-4.266667 0-4.266666-2.133333L102.4 296.533333c-4.266667-2.133333-6.4-8.533333-4.266667-14.933333 2.133333-4.266667 8.533333-6.4 12.8-4.266667l413.866667 209.066667c4.266667 2.133333 6.4 8.533333 4.266667 14.933333 0 2.133333-4.266667 4.266667-8.533334 4.266667z" fill="#ffffff" p-id="7782"></path><path d="M520.533333 505.6c-4.266667 0-8.533333-2.133333-8.533333-6.4-2.133333-4.266667 0-10.666667 4.266667-14.933333L934.4 277.333333c4.266667-2.133333 10.666667 0 14.933333 4.266667 2.133333 4.266667 0 10.666667-4.266666 14.933333l-418.133334 209.066667h-6.4z" fill="#ffffff" p-id="7783"></path><path d="M520.533333 974.933333c-2.133333 0-4.266667 0-4.266666-2.133333L102.4 765.866667c-4.266667-2.133333-6.4-6.4-6.4-8.533334v-469.333333c0-4.266667 2.133333-8.533333 6.4-10.666667l413.866667-155.733333h8.533333L942.933333 277.333333c4.266667 2.133333 6.4 6.4 6.4 10.666667v467.2c0 4.266667-2.133333 8.533333-6.4 8.533333l-418.133333 209.066667s-2.133333 2.133333-4.266667 2.133333zM117.333333 748.8l403.2 202.666667 407.466667-202.666667V294.4L520.533333 142.933333 117.333333 294.4v454.4z" fill="#ffffff" p-id="7784"></path></svg>