<?xml version="1.0" standalone="no"?><!DOCTYPE svg PUBLIC "-//W3C//DTD SVG 1.1//EN" "http://www.w3.org/Graphics/SVG/1.1/DTD/svg11.dtd"><svg t="1522847046328" class="icon" style="" viewBox="0 0 1024 1024" version="1.1" xmlns="http://www.w3.org/2000/svg" p-id="6681" xmlns:xlink="http://www.w3.org/1999/xlink" width="200" height="200"><defs><style type="text/css"></style></defs><path d="M676.266667 533.333333H332.8c-6.4 0-10.666667-4.266667-10.666667-10.666666s4.266667-10.666667 10.666667-10.666667h343.466667c6.4 0 10.666667 4.266667 10.666666 10.666667s-4.266667 10.666667-10.666666 10.666666zM311.466667 482.133333c-4.266667 0-6.4-2.133333-8.533334-4.266666-4.266667-4.266667-2.133333-10.666667 2.133334-14.933334l192-128c4.266667-4.266667 10.666667-2.133333 14.933333 2.133334 4.266667 4.266667 2.133333 10.666667-2.133333 14.933333l-192 128c-2.133333 0-4.266667 2.133333-6.4 2.133333zM503.466667 710.4c-2.133333 0-4.266667 0-6.4-2.133333l-192-128c-4.266667-4.266667-6.4-10.666667-2.133334-14.933334 4.266667-4.266667 10.666667-6.4 14.933334-2.133333l192 128c4.266667 4.266667 6.4 10.666667 2.133333 14.933333-2.133333 2.133333-4.266667 4.266667-8.533333 4.266667z" fill="#ffffff" p-id="6682"></path><path d="M256 610.133333c-49.066667 0-87.466667-38.4-87.466667-87.466666s38.4-87.466667 87.466667-87.466667 87.466667 38.4 87.466667 87.466667-40.533333 87.466667-87.466667 87.466666z m0-153.6c-36.266667 0-66.133333 29.866667-66.133333 66.133334 0 36.266667 29.866667 66.133333 66.133333 66.133333s66.133333-29.866667 66.133333-66.133333c0-36.266667-29.866667-66.133333-66.133333-66.133334z" fill="#ffffff" p-id="6683"></path><path d="M753.066667 610.133333c-49.066667 0-87.466667-38.4-87.466667-87.466666s38.4-87.466667 87.466667-87.466667 87.466667 38.4 87.466666 87.466667-40.533333 87.466667-87.466666 87.466666z m0-153.6c-36.266667 0-66.133333 29.866667-66.133334 66.133334 0 36.266667 29.866667 66.133333 66.133334 66.133333s66.133333-29.866667 66.133333-66.133333c-2.133333-36.266667-29.866667-66.133333-66.133333-66.133334zM561.066667 379.733333c-49.066667 0-87.466667-38.4-87.466667-87.466666s38.4-87.466667 87.466667-87.466667 87.466667 38.4 87.466666 87.466667-38.4 87.466667-87.466666 87.466666z m0-151.466666c-36.266667 0-66.133333 29.866667-66.133334 66.133333s29.866667 66.133333 66.133334 66.133333 66.133333-29.866667 66.133333-66.133333-29.866667-66.133333-66.133333-66.133333zM561.066667 838.4c-49.066667 0-87.466667-38.4-87.466667-87.466667s38.4-87.466667 87.466667-87.466666 87.466667 38.4 87.466666 87.466666-38.4 87.466667-87.466666 87.466667z m0-151.466667c-36.266667 0-66.133333 29.866667-66.133334 66.133334s29.866667 66.133333 66.133334 66.133333 66.133333-29.866667 66.133333-66.133333-29.866667-66.133333-66.133333-66.133334z" fill="#ffffff" p-id="6684"></path><path d="M522.666667 992c-258.133333 0-469.333333-211.2-469.333334-469.333333s211.2-469.333333 469.333334-469.333334 469.333333 211.2 469.333333 469.333334-211.2 469.333333-469.333333 469.333333z m0-917.333333c-247.466667 0-448 200.533333-448 448s200.533333 448 448 448 448-200.533333 448-448-200.533333-448-448-448z" fill="#ffffff" p-id="6685"></path></svg>