<?xml version="1.0" standalone="no"?><!DOCTYPE svg PUBLIC "-//W3C//DTD SVG 1.1//EN" "http://www.w3.org/Graphics/SVG/1.1/DTD/svg11.dtd"><svg t="1522847279181" class="icon" style="" viewBox="0 0 1024 1024" version="1.1" xmlns="http://www.w3.org/2000/svg" p-id="7296" xmlns:xlink="http://www.w3.org/1999/xlink" width="200" height="200"><defs><style type="text/css"></style></defs><path d="M808 789.994667l-21.952-32.896 65.813333-38.4V323.904l-197.418666-115.157333 19.2-32.917334 216.597333 126.144v438.698667l-82.24 49.344zM166.378667 562.432H128V304.682667L517.333333 85.333333l87.765334 49.344-19.2 35.648-68.544-41.130666L166.378667 326.613333v235.818667zM509.12 960L128 743.381333v-106.922666h38.4v84.992l342.72 194.688 222.08-126.144 19.2 32.917333L509.141333 960z m-24.682667-619.669333l-84.992-49.365334v-30.144l112.426667-65.813333 109.653333 65.813333v30.144l-82.24 49.365334-2.752 30.165333-24.661333-16.448-27.434667 16.426667v-30.144z m172.757334 197.418666V439.04l-85.013334-49.365333v-30.144l109.674667-63.061334 112.426667 63.061334v128.853333l-112.426667 63.082667-24.661333-13.717334zM399.445333 784.512v-126.122667l24.682667-16.448 84.992 49.344 87.744-49.344 24.682667 13.717334v128.853333l-112.426667 65.813333-109.653333-65.813333z m257.749334-49.344v-98.709333l-27.434667-16.448 27.434667-13.717334v-30.165333l24.661333 16.448 85.013333-49.344 27.413334 13.717333v128.853334l-112.426667 63.061333-24.661333-13.696z m-257.749334-148.053333V458.24l112.426667-63.061333 109.653333 63.061333v128.853333l-112.405333 63.061334-109.653333-63.061334z m-175.488 98.688l2.752-128.853334 24.682667-13.717333 84.992 49.344 27.413333-16.426667v30.144l27.434667 16.448-27.434667 13.717334v98.709333l-27.413333 13.696-112.426667-63.061333z m0-197.418667l2.752-128.853333 112.426667-63.061334 109.653333 63.061334v30.144l-84.992 49.365333v95.957333l-27.413333 16.469334-112.426667-63.082667z" fill="#ffffff" p-id="7297"></path></svg>